<svg xmlns="http://www.w3.org/2000/svg" width="20" height="20" viewBox="0 0 20 20">
    <path data-name="사각형 5848" transform="translate(1.804 5.629)" style="fill:#d3233a" d="M0 0h16v14H0z"/>
    <path data-name="패스 2867" d="M16.411 6.558h-2.174a2.693 2.693 0 0 0-.075-3.839 2.941 2.941 0 0 0-4.038 0A5.146 5.146 0 0 0 9.087 4.2a5.452 5.452 0 0 0-1.018-1.48 2.869 2.869 0 0 0-4.035 0 2.677 2.677 0 0 0-.074 3.838H1.823A1.787 1.787 0 0 0 0 8.31v11.82a1.787 1.787 0 0 0 1.823 1.753h14.588a1.787 1.787 0 0 0 1.823-1.753V8.31a1.789 1.789 0 0 0-1.823-1.752zm-5.239-2.832a1.36 1.36 0 0 1 1.9 0 1.268 1.268 0 0 1 0 1.864 4.619 4.619 0 0 1-1.775.968h-1.255a3.976 3.976 0 0 1 1.13-2.832zM5.12 5.59a1.268 1.268 0 0 1 0-1.864 1.4 1.4 0 0 1 1.9 0 4.079 4.079 0 0 1 1.139 2.832H6.924A5.1 5.1 0 0 1 5.12 5.59zm11.6 14.54a.327.327 0 0 1-.309.3H1.823a.327.327 0 0 1-.309-.3V8.31a.3.3 0 0 1 .309-.3h14.588a.327.327 0 0 1 .309.3z" transform="translate(1 -1.883)" style="fill:#1d1d1b"/>
    <path data-name="선 85" transform="translate(10.11 2.5)" style="fill:none;stroke:#1d1d1b;stroke-width:2px" d="M0 0v17"/>
</svg>
