<svg xmlns="http://www.w3.org/2000/svg" width="30" height="30" viewBox="0 0 30 30">
    <g data-name="그룹 8711">
        <path data-name="패스 5454" d="m1299.333 119.833-11.168-11.168s-2.355-5.006 1.783-7.71a5.018 5.018 0 0 1 .552-.289c5-2.333 8.833 2 8.833 2s6.166-6.333 10.5-1-2.166 10.167-2.166 10.167z" transform="translate(-1284.521 -95)" style="fill:#d3233a"/>
        <path data-name="패스 5446" d="M18.8 28.761a7.272 7.272 0 0 0-5.172 2.145l-.57.57-.581-.581A7.3 7.3 0 1 0 2.145 41.223l10.242 10.242.022.022a.922.922 0 0 0 1.3-.005l10.237-10.243A7.309 7.309 0 0 0 18.8 28.761zm3.849 11.172-9.586 9.591-9.611-9.607a5.455 5.455 0 1 1 7.715-7.717l1.233 1.233a.956.956 0 0 0 1.306 0l1.226-1.226a5.459 5.459 0 1 1 7.715 7.726z" transform="translate(1.954 -25.25)" style="stroke:#d3233a;stroke-width:.3px;fill:#d3233a"/>
    </g>
</svg>
